PathFileType	4	(X/Y/Z)	/Users/itak/Documents/Research/Walk-IL/dataset/trc/00391_00012.trc
DataRate	CameraRate	NumFrames	NumMarkers	Units	OrigDataRate	OrigDataStartFrame	OrigNumFrames
100.000000	100.000000	4	55	mm	100.000000	137	550
Frame#	Time	RPSI			LPSI			L3			STRN			T10			C7			CLAV			RBAK			LBAK			LSHO			LUPA			LAEL			LAOL			LWTS			LWPS			LFRA			LHPS			LHTS			RSHO			RUPA			RAEL			RWTS			RWPS			RFRA			RIFD			RHTS			RHPS			RBHD			LFHD			RFHD			LBHD			LHIP			RHIP			RASI			LASI			LKNE			LTHI			LANK			LTIP			LTOE			LMT1			LMT5			LHEE			RKNE			RTHI			RANK			RTIP			RTOE			RMT1			RMT5			RHEE			LIFD			RAOL			*53			*54			
		X1	Y1	Z1	X2	Y2	Z2	X3	Y3	Z3	X4	Y4	Z4	X5	Y5	Z5	X6	Y6	Z6	X7	Y7	Z7	X8	Y8	Z8	X9	Y9	Z9	X10	Y10	Z10	X11	Y11	Z11	X12	Y12	Z12	X13	Y13	Z13	X14	Y14	Z14	X15	Y15	Z15	X16	Y16	Z16	X17	Y17	Z17	X18	Y18	Z18	X19	Y19	Z19	X20	Y20	Z20	X21	Y21	Z21	X22	Y22	Z22	X23	Y23	Z23	X24	Y24	Z24	X25	Y25	Z25	X26	Y26	Z26	X27	Y27	Z27	X28	Y28	Z28	X29	Y29	Z29	X30	Y30	Z30	X31	Y31	Z31	X32	Y32	Z32	X33	Y33	Z33	X34	Y34	Z34	X35	Y35	Z35	X36	Y36	Z36	X37	Y37	Z37	X38	Y38	Z38	X39	Y39	Z39	X40	Y40	Z40	X41	Y41	Z41	X42	Y42	Z42	X43	Y43	Z43	X44	Y44	Z44	X45	Y45	Z45	X46	Y46	Z46	X47	Y47	Z47	X48	Y48	Z48	X49	Y49	Z49	X50	Y50	Z50	X51	Y51	Z51	X52	Y52	Z52	X53	Y53	Z53	X54	Y54	Z54	X55	Y55	Z55	

138	1.37	934.8687744140625	982.61865234375	-13.31423950195312	925.4918212890625	975.5385131835938	-144.7001647949219	932.7489624023438	1047.050415039062	-77.77769470214844	1166.821655273438	1209.344116210938	-79.05245971679688	924.0065307617188	1149.773559570312	-82.27426910400391	951.1603393554688	1400.424926757812	-94.93714904785156	1110.625122070312	1327.202270507812	-83.36886596679688	912.6082153320312	1253.795043945312	-25.23766899108887	940.9509887695312	1360.35400390625	-198.0402069091797	1029.464111328125	1378.029541015625	-246.3050689697266	1014.869018554688	1258.2783203125	-314.1824340820312	1053.34130859375	1062.760498046875	-331.2661743164062	994.3460083007812	1038.51416015625	-273.1997680664062	1161.773803710938	860.7617797851562	-272.6201477050781	1117.733032226562	839.458251953125	-339.2459411621094	1080.782592773438	960.2067260742188	-335.4948425292969	1139.76953125	756.4186401367188	-328.3145751953125	1191.005126953125	766.7269287109375	-289.0855712890625	1006.532775878906	1384.7548828125	66.892333984375	994.62841796875	1318.626831054688	126.4296646118164	1024.587768554688	1056.40625	161.9451141357422	1167.100952148438	851.9244995117188	123.032844543457	1130.261840820312	838.0730590820312	185.6756439208984	1056.898681640625	993.270263671875	175.3363189697266	1179.594360351562	679.5113525390625	126.5442199707031	1194.884521484375	749.499755859375	141.8722229003906	1139.829223632812	748.8399047851562	184.2267913818359	984.1254272460938	1594.295288085938	-18.43630599975586	1155.201171875	1591.4541015625	-119.2980880737305	1116.758056640625	1597.018432617188	-2.543272495269775	1017.522521972656	1586.052490234375	-175.3973999023438	1007.882080078125	960.2078857421875	-260.0339660644531	1021.329223632812	955.9334106445312	99.50079345703125	1152.034301757812	963.0339965820312	41.49140930175781	1129.22021484375	958.5392456054688	-222.6699676513672	1032.557373046875	465.7120361328125	-238.7997436523438	1033.206665039062	608.9297485351562	-250.1203155517578	930.9557495117188	30.74530220031738	-190.6824798583984	975.9630737304688	237.5602569580078	-227.3669128417969	1145.557250976562	32.59460830688477	-129.8743133544922	1066.713134765625	36.95571899414062	-98.07167053222656	1057.913818359375	29.17316055297852	-203.2431793212891	894.4384765625	30.10136222839355	-133.7227020263672	1033.06396484375	467.3816833496094	74.20488739013672	1090.52734375	728.2310180664062	96.70690155029297	963.8114624023438	46.52987670898438	38.95584869384766	1033.532470703125	341.3286743164062	57.53270721435547	1141.297729492188	29.62051391601562	-29.42225456237793	1064.656616210938	35.05034255981445	-56.21730804443359	1048.420654296875	37.0307502746582	41.07215881347656	887.9279174804688	34.62863540649414	-12.35129642486572	1177.8427734375	681.7996826171875	-269.8283081054688	1004.298461914062	1043.626953125	72.37843322753906	nan	nan	nan	nan	nan	nan	
139	1.38	934.5203857421875	982.5936889648438	-13.17529773712158	925.2052001953125	975.50341796875	-144.6239624023438	932.3424072265625	1047.112182617188	-77.63037109375	1166.475219726562	1209.40771484375	-78.75272369384766	923.726806640625	1149.828002929688	-82.12334442138672	950.7549438476562	1400.462280273438	-94.73484802246094	1110.281372070312	1327.255615234375	-83.11260223388672	912.3175659179688	1253.843627929688	-25.08825492858887	940.6727294921875	1360.450439453125	-197.8737182617188	1029.188354492188	1378.065795898438	-246.0789947509766	1014.583129882812	1258.297607421875	-313.9407348632812	1053.05419921875	1062.793334960938	-331.0789489746094	994.0757446289062	1038.557373046875	-272.9956970214844	1161.5205078125	860.8345336914062	-272.4393920898438	1117.493774414062	839.5259399414062	-339.0747985839844	1080.569580078125	960.2581787109375	-335.3406372070312	1139.636474609375	756.4860229492188	-328.1452941894531	1190.733642578125	766.6828002929688	-288.9084777832031	1006.107421875	1384.830932617188	67.07349395751953	994.1747436523438	1318.65771484375	126.6270446777344	1024.112670898438	1056.425415039062	162.1237182617188	1166.780151367188	852.0151977539062	123.2405166625977	1129.906127929688	838.1229248046875	185.8651580810547	1056.489868164062	993.3079833984375	175.5315093994141	1179.39111328125	679.6232299804688	126.7534790039062	1194.610717773438	749.5974731445312	142.0760803222656	1139.475341796875	748.90966796875	184.3697662353516	983.7183837890625	1594.341430664062	-18.12312316894531	1154.832641601562	1591.476318359375	-119.1258773803711	1116.48486328125	1597.032348632812	-2.314669132232666	1017.111938476562	1586.136108398438	-175.0919952392578	1007.656127929688	960.1995239257812	-259.8407592773438	1020.996215820312	955.8980712890625	99.63986206054688	1151.707153320312	963.1410522460938	41.79381942749023	1129.009643554688	958.6161499023438	-222.3616790771484	1032.625366210938	465.7699584960938	-238.63916015625	1033.171508789062	609.011474609375	-249.9398956298828	930.949951171875	30.76796722412109	-190.6670379638672	976.0719604492188	237.5880737304688	-227.2852325439453	1145.578491210938	32.55096435546875	-129.8851013183594	1066.7568359375	36.9295539855957	-98.01500701904297	1057.908081054688	29.18391418457031	-203.2456512451172	894.4498291015625	30.1138973236084	-133.6976776123047	1033.009521484375	467.4085693359375	74.31251525878906	1090.2578125	728.1829833984375	97.19477081298828	963.8275146484375	46.51958465576172	38.97603225708008	1033.509643554688	341.3684692382812	57.58855438232422	1141.300048828125	29.62319183349609	-29.43646049499512	1064.657836914062	35.06076812744141	-56.21757507324219	1048.424682617188	37.03615188598633	41.08284759521484	887.8231201171875	34.66543960571289	-12.38663768768311	1177.747436523438	681.8817749023438	-269.735107421875	1003.632141113281	1043.665283203125	72.57080078125	nan	nan	nan	nan	nan	nan	
140	1.39	934.1290893554688	982.5499267578125	-13.06023788452148	924.9277954101562	975.469482421875	-144.5470733642578	931.9993286132812	1047.168579101562	-77.47732543945312	1166.110595703125	1209.454467773438	-78.41072845458984	923.4326782226562	1149.86572265625	-81.99278259277344	950.352294921875	1400.503173828125	-94.52621459960938	1109.924926757812	1327.31298828125	-82.83051300048828	911.9293212890625	1253.892944335938	-24.95747184753418	940.38037109375	1360.541625976562	-197.6952362060547	1028.908081054688	1378.098510742188	-245.8505706787109	1014.277709960938	1258.296264648438	-313.6776733398438	1052.745849609375	1062.827026367188	-330.8616333007812	993.7900390625	1038.59521484375	-272.7479553222656	1161.251831054688	860.8978881835938	-272.2601013183594	1117.248657226562	839.583984375	-338.8887023925781	1080.308959960938	960.2886962890625	-335.1624145507812	1139.458618164062	756.542724609375	-327.9676208496094	1190.4306640625	766.6455688476562	-288.6982727050781	1005.653015136719	1384.90966796875	67.26194763183594	993.7081909179688	1318.68115234375	126.8427505493164	1023.615478515625	1056.442504882812	162.3181762695312	1166.42333984375	852.1076049804688	123.4604949951172	1129.520385742188	838.1715087890625	186.0702819824219	1056.0341796875	993.3449096679688	175.7343902587891	1179.16552734375	679.7354736328125	126.977897644043	1194.283203125	749.6814575195312	142.2825469970703	1139.100830078125	748.992431640625	184.5337524414062	983.3062133789062	1594.387084960938	-17.80843925476074	1154.455688476562	1591.492553710938	-118.9385986328125	1116.199951171875	1597.033813476562	-2.093880653381348	1016.686279296875	1586.207397460938	-174.7793273925781	1007.401306152344	960.1903686523438	-259.6561279296875	1020.827392578125	955.8465576171875	99.83438873291016	1151.33349609375	963.2374267578125	42.09626770019531	1128.795654296875	958.6920776367188	-222.0565643310547	1032.683837890625	465.8307800292969	-238.4800567626953	1033.111572265625	609.092041015625	-249.7631683349609	930.943359375	30.79026222229004	-190.6548309326172	976.1696166992188	237.6150512695312	-227.2008056640625	1145.601318359375	32.51699066162109	-129.898681640625	1066.797241210938	36.90570831298828	-97.96607208251953	1057.898193359375	29.19938659667969	-203.2472076416016	894.462158203125	30.12285614013672	-133.6689605712891	1032.95166015625	467.4423522949219	74.44239044189453	1089.888427734375	728.1846923828125	97.7359619140625	963.8424682617188	46.50597763061523	38.99713134765625	1033.480102539062	341.4114685058594	57.65787506103516	1141.303344726562	29.62889099121094	-29.45217323303223	1064.656005859375	35.07061004638672	-56.2155647277832	1048.42724609375	37.04377365112305	41.09439468383789	887.74267578125	34.68624114990234	-12.41436004638672	1177.728637695312	682.0482177734375	-269.7184448242188	1002.962585449219	1043.676147460938	72.7724609375	nan	nan	nan	nan	nan	nan	
141	1.4	933.6908569335938	982.4927368164062	-12.96716976165771	924.6624755859375	975.4381713867188	-144.4640808105469	931.7109375	1047.218994140625	-77.32204437255859	1165.730346679688	1209.490112304688	-78.04058837890625	923.1071166992188	1149.88330078125	-81.88228607177734	949.9547119140625	1400.550903320312	-94.31492614746094	1109.555297851562	1327.371459960938	-82.525390625	911.4685668945312	1253.9375	-24.83454513549805	940.068603515625	1360.625122070312	-197.5038299560547	1028.620971679688	1378.12890625	-245.6181488037109	1013.953552246094	1258.281127929688	-313.397705078125	1052.416748046875	1062.85888671875	-330.6170959472656	993.4902954101562	1038.628662109375	-272.4568786621094	1160.973999023438	860.9445190429688	-272.0858764648438	1116.998657226562	839.6282348632812	-338.689697265625	1079.991943359375	960.2991333007812	-334.9569396972656	1139.234252929688	756.5906982421875	-327.782958984375	1190.113525390625	766.6258544921875	-288.4670715332031	1005.164672851562	1384.98876953125	67.45844268798828	993.2218017578125	1318.697143554688	127.0760955810547	1023.104919433594	1056.457275390625	162.5334320068359	1166.026000976562	852.198974609375	123.6942901611328	1129.103637695312	838.2185668945312	186.2923278808594	1055.5302734375	993.3789672851562	175.9444732666016	1178.902954101562	679.8425903320312	127.2101058959961	1193.89501953125	749.7491455078125	142.4915313720703	1138.694580078125	749.073486328125	184.7146606445312	982.9161376953125	1594.432861328125	-17.48403930664062	1154.065185546875	1591.505249023438	-118.7344360351562	1115.903076171875	1597.022583007812	-1.880452513694763	1016.24072265625	1586.26416015625	-174.4569091796875	1007.138793945312	960.1907348632812	-259.4741516113281	1020.903991699219	955.7825317382812	100.1157379150391	1150.900146484375	963.31689453125	42.38914108276367	1128.574462890625	958.7771606445312	-221.7620391845703	1032.734130859375	465.8908996582031	-238.3269653320312	1033.029541015625	609.165283203125	-249.5928802490234	930.9364013671875	30.8110179901123	-190.6472473144531	976.2535400390625	237.6394195556641	-227.1136627197266	1145.624389648438	32.48995208740234	-129.9130401611328	1066.832153320312	36.88596725463867	-97.92758178710938	1057.884643554688	29.21805381774902	-203.2477111816406	894.4833374023438	30.12825775146484	-133.6347351074219	1032.888793945312	467.4831848144531	74.59650421142578	1089.44189453125	728.2525634765625	98.25936889648438	963.8558349609375	46.48789596557617	39.01902770996094	1033.439086914062	341.4556274414062	57.74319839477539	1141.305908203125	29.63580703735352	-29.46402168273926	1064.651611328125	35.07997894287109	-56.21139526367188	1048.425415039062	37.04956436157227	41.10791778564453	887.6926879882812	34.68959045410156	-12.43213081359863	1177.710571289062	682.2066650390625	-269.7049865722656	1002.328063964844	1043.661499023438	72.98471832275391	nan	nan	nan	nan	nan	nan	
